<?xml version="1.0" encoding="UTF-8"?>
<!-- Generator: Adobe Illustrator 18.1.1, SVG Export Plug-In . SVG Version: 6.00 Build 0)  -->
<svg version="1.1" id="Layer_1" xmlns:sketch="http://www.bohemiancoding.com/sketch/ns" xmlns="http://www.w3.org/2000/svg" xmlns:xlink="http://www.w3.org/1999/xlink" x="0px" y="0px" viewBox="-280 382 51 30" enable-background="new -280 382 51 30" xml:space="preserve">
<title>button-module</title>
<desc>Created with Sketch.</desc>
<path fill="#505659" d="M-233.4,411.2l1.3-0.7l-2.1-4h3.6l-9.4-9.4v13.3l2.7-2.7l2.3,4.4L-233.4,411.2L-233.4,411.2z"/>
<path fill="#505659" d="M-240.8,402h-35.8c-1.4,0-2.5-1.1-2.5-2.4v-14.3c0-1.3,1.1-2.4,2.5-2.4h43.1c1.4,0,2.5,1.1,2.5,2.4v14.3  c0,1-0.6,1.9-1.5,2.2l0.7,0.7c1.1-0.6,1.8-1.7,1.8-2.9v-14.3c0-1.8-1.5-3.3-3.4-3.3h-43.1c-1.9,0-3.4,1.5-3.4,3.3v14.3  c0,1.8,1.5,3.3,3.4,3.3h35.8V402z"/>
<rect x="-269" y="391" fill="#505659" width="28" height="2"/>
</svg>