<?xml version="1.0" encoding="UTF-8"?>
<!-- Generator: Adobe Illustrator 18.1.1, SVG Export Plug-In . SVG Version: 6.00 Build 0)  -->
<svg version="1.1" id="Layer_1" xmlns:sketch="http://www.bohemiancoding.com/sketch/ns" xmlns="http://www.w3.org/2000/svg" xmlns:xlink="http://www.w3.org/1999/xlink" x="0px" y="0px" viewBox="-300 382 30 30" enable-background="new -300 382 30 30" xml:space="preserve">
<title>T</title>
<desc>Created with Sketch.</desc>
<g id="Modules" sketch:type="MSPage">
	<g id="Modules-hover-mail" transform="translate(-941.000000, -161.000000)" sketch:type="MSArtboardGroup">
		<g enable-background="new    ">
			<path fill="#505659" d="M668.5,551.4h-1.4c-0.1-0.5-0.3-1.1-0.7-1.7c-0.3-0.7-0.7-1.3-1.1-1.9c-0.4-0.6-0.9-1.2-1.3-1.6     c-0.5-0.5-0.9-0.7-1.4-0.8c-0.4-0.1-0.9-0.1-1.6-0.1c-0.6,0-1.2,0-1.8,0h-1.2v23c0,0.4,0.1,0.9,0.3,1.2c0.2,0.4,0.5,0.7,1,0.9     c0.2,0.1,0.8,0.2,1.5,0.4c0.8,0.2,1.4,0.3,1.8,0.3v1.4h-13.6V571c0.4,0,1-0.1,1.7-0.2c0.8-0.1,1.3-0.2,1.6-0.3     c0.4-0.2,0.8-0.4,1-0.8c0.2-0.3,0.3-0.8,0.3-1.3v-23.2h-1.2c-0.4,0-0.9,0-1.6,0c-0.6,0-1.2,0.1-1.8,0.1c-0.4,0.1-0.9,0.3-1.4,0.8     s-0.9,1-1.3,1.6c-0.4,0.6-0.8,1.3-1.1,1.9c-0.3,0.7-0.5,1.2-0.6,1.7h-1.4v-7.8h25.1V551.4z"/>
		</g>
	</g>
</g>
</svg>